<svg xmlns="http://www.w3.org/2000/svg" width="700" height="307" class="highcharts-root" font-family="&quot;Lucida Grande&quot;, &quot;Lucida Sans Unicode&quot;, Arial, Helvetica, sans-serif" font-size="12"><desc>Created with Highstock 6.1.0</desc><defs><clipPath><path fill="none" d="M0 0h86v670H0z"/></clipPath><clipPath id="a"><path fill="none" d="M0 0h86v670H0z"/></clipPath></defs><rect width="700" height="307" fill="#fff" class="highcharts-background" rx="0" ry="0"/><path fill="none" d="M20 129h670v86H20z" class="highcharts-plot-background"/><path fill="none" d="M20 172.5h670" class="highcharts-grid-line"/><g fill="none" stroke="#e6e6e6" class="highcharts-grid highcharts-yaxis-grid"><path d="M19.5 129v86M93.5 129v86M168.5 129v86M242.5 129v86M317.5 129v86M391.5 129v86M466.5 129v86M540.5 129v86M615.5 129v86M690.5 129v86" class="highcharts-grid-line"/></g><path fill="none" d="M20 129h670v86H20z" class="highcharts-plot-border"/><g fill="none" stroke="#ccd6eb" class="highcharts-axis highcharts-xaxis"><path d="M20 172.5H10" class="highcharts-tick"/><path d="M19.5 129v86" class="highcharts-axis-line"/></g><g class="highcharts-axis highcharts-yaxis"><text x="345" y="253" fill="#666" text-anchor="middle" class="highcharts-axis-title" color="#666"><tspan>Frames per Second (Higher is Better)</tspan></text><path fill="none" d="M20 215h670" class="highcharts-axis-line"/></g><g class="highcharts-series-group"><g class="highcharts-series highcharts-series-0 highcharts-column-series highcharts-color-0" clip-path="url(#a)" transform="matrix(0 -1 -1 0 690 215)"><path fill="#D14648" stroke="#fff" d="M52.5 55.5h14v615h-14z" class="highcharts-point highcharts-color-0"/></g><g class="highcharts-series highcharts-series-1 highcharts-column-series highcharts-color-1" clip-path="url(#a)" transform="matrix(0 -1 -1 0 690 215)"><path fill="#323232" stroke="#fff" d="M35.5 403.5h14v267h-14z" class="highcharts-point highcharts-color-1"/></g><g class="highcharts-series highcharts-series-2 highcharts-column-series highcharts-color-2" clip-path="url(#a)" transform="matrix(0 -1 -1 0 690 215)"><path fill="#bdbdbd" stroke="#fff" d="M18.5 545.5h14v125h-14z" class="highcharts-point highcharts-color-2"/></g></g><text x="350" y="61" fill="#333" text-anchor="middle" class="highcharts-title" color="#333" font-size="25" font-family="&quot;Lucida Grande&quot;, &quot;Lucida Sans Unicode&quot;, Verdana, Arial, Helvetica, sans-serif" font-weight="bold"><tspan>XCOM 2</tspan></text><text x="350" y="87" fill="#666" text-anchor="middle" class="highcharts-subtitle" color="#666" font-family="&quot;Lucida Grande&quot;, &quot;Lucida Sans Unicode&quot;, Verdana, Arial, Helvetica, sans-serif" font-size="16"><tspan>1280x800, Medium settings</tspan></text><text x="5" y="16" font-size="11" font-weight="bold" color="#000" transform="translate(20 129) translate(615 15)" class="highcharts-label highcharts-data-label highcharts-data-label-color-0"><tspan x="5" y="16" fill="#fff" stroke="#fff" stroke-width="2" class="highcharts-text-outline" stroke-linejoin="round">41.3</tspan><tspan x="5" y="16">41.3</tspan></text><text x="5" y="16" font-size="11" font-weight="bold" color="#000" transform="translate(20 129) translate(267 32)" class="highcharts-label highcharts-data-label highcharts-data-label-color-1"><tspan x="5" y="16" fill="#fff" stroke="#fff" stroke-width="2" class="highcharts-text-outline" stroke-linejoin="round">17.9</tspan><tspan x="5" y="16">17.9</tspan></text><text x="5" y="16" font-size="11" font-weight="bold" color="#000" transform="translate(20 129) translate(125 49)" class="highcharts-label highcharts-data-label highcharts-data-label-color-2"><tspan x="5" y="16" fill="#fff" stroke="#fff" stroke-width="2" class="highcharts-text-outline" stroke-linejoin="round">8.4</tspan><tspan x="5" y="16">8.4</tspan></text><g class="highcharts-legend" transform="translate(197 267)"><rect width="305" height="25" fill="none" class="highcharts-legend-box" rx="0" ry="0"/><g class="highcharts-legend-item highcharts-column-series highcharts-color-0 highcharts-series-0" transform="translate(8 3)"><text x="21" y="15" fill="#333" color="#333" font-size="12" font-weight="bold" cursor="pointer"><tspan>2014 iMac</tspan></text><rect width="12" height="12" x="2" y="4" fill="#D14648" rx="6" ry="6" class="highcharts-point"/></g><g class="highcharts-legend-item highcharts-column-series highcharts-color-1 highcharts-series-1" transform="translate(112.844 3)"><text x="21" y="15" fill="#333" color="#333" font-size="12" font-weight="bold" cursor="pointer"><tspan>2016 MBP</tspan></text><rect width="12" height="12" x="2" y="4" fill="#323232" rx="6" ry="6" class="highcharts-point"/></g><g class="highcharts-legend-item highcharts-column-series highcharts-color-2 highcharts-series-2" transform="translate(215.266 3)"><text x="21" y="15" fill="#333" color="#333" font-size="12" font-weight="bold" cursor="pointer"><tspan>2013 MBP</tspan></text><rect width="12" height="12" x="2" y="4" fill="#bdbdbd" rx="6" ry="6" class="highcharts-point"/></g></g><g fill="#666" class="highcharts-axis-labels highcharts-yaxis-labels" text-anchor="middle" color="#666" cursor="default" font-size="11"><text x="20" y="234">0</text><text x="94.444" y="234">5</text><text x="168.889" y="234">10</text><text x="243.333" y="234">15</text><text x="317.778" y="234">20</text><text x="392.222" y="234">25</text><text x="466.667" y="234">30</text><text x="541.111" y="234">35</text><text x="615.556" y="234">40</text><text x="683.047" y="234">45</text></g></svg>